<svg aria-hidden="true" style="width:0;height:0;position:absolute;overflow:hidden" xmlns="http://www.w3.org/2000/svg"><defs><symbol id="icon-vector-up" viewBox="0 0 53 32"><path d="M6.267 32 0 25.911 26.667 0l26.667 25.911L47.067 32l-20.4-19.779L6.267 32z"/></symbol><symbol id="icon-frame" viewBox="0 0 32 32"><path d="M22.666 4h5.333a1.335 1.335 0 0 1 1.334 1.334v21.333A1.33 1.33 0 0 1 27.999 28h-24a1.333 1.333 0 0 1-1.334-1.333V5.334A1.335 1.335 0 0 1 3.999 4h5.333V1.333h2.667V4h8V1.333h2.667V4zm4 10.667H5.333v10.667h21.333V14.667zm-6.666-8h-8v2.667H9.333V6.667h-4V12h21.333V6.667h-4v2.667h-2.667V6.667zM8 17.333h2.667V20H8v-2.667zm6.666 0h2.667V20h-2.667v-2.667zm6.667 0H24V20h-2.667v-2.667z"/></symbol><symbol id="icon-vector-down" viewBox="0 0 53 32"><path d="M6.267 0 0 6.089 26.667 32 53.334 6.089 47.067 0l-20.4 19.779L6.267 0z"/></symbol><symbol id="icon-vector-left" viewBox="0 0 16 32"><path d="M0 16c0 .596.204 1.107.642 1.55l12.192 12.982c.345.375.784.579 1.301.579 1.034 0 1.865-.886 1.865-2.027 0-.562-.219-1.056-.564-1.448L4.451 16 15.436 4.364c.345-.392.564-.903.564-1.448 0-1.141-.831-2.027-1.865-2.027-.517 0-.956.204-1.301.579L.642 14.433C.203 14.893 0 15.404 0 16z"/></symbol><symbol id="icon-vector-right" viewBox="0 0 16 32"><path d="M16 16a2.309 2.309 0 0 0-.643-1.567L3.165 1.468c-.36-.375-.784-.579-1.301-.579-1.05 0-1.865.886-1.865 2.027 0 .545.204 1.056.564 1.448L11.533 16 .563 27.636a2.1 2.1 0 0 0-.564 1.448c0 1.142.815 2.027 1.865 2.027.501 0 .94-.204 1.301-.579L15.357 17.55c.439-.443.642-.954.642-1.55z"/><symbol id="icon-chevronbackward" viewBox="0 0 16 32"><path fill="#4440f6" style="fill:var(--color1,#4440f6)" d="M0 16c0 .596.204 1.107.642 1.55l12.192 12.982c.345.375.784.579 1.301.579 1.034 0 1.865-.886 1.865-2.027 0-.562-.219-1.056-.564-1.448L4.451 16 15.436 4.364c.345-.392.564-.903.564-1.448 0-1.141-.831-2.027-1.865-2.027-.517 0-.956.204-1.301.579L.642 14.433C.203 14.893 0 15.404 0 16z"/></symbol><symbol id="icon-chevronforward" viewBox="0 0 16 32"><path fill="#4440f6" style="fill:var(--color1,#4440f6)" d="M16 16a2.309 2.309 0 0 0-.643-1.567L3.165 1.468c-.36-.375-.784-.579-1.301-.579-1.05 0-1.865.886-1.865 2.027 0 .545.204 1.056.564 1.448L11.533 16 .563 27.636a2.1 2.1 0 0 0-.564 1.448c0 1.142.815 2.027 1.865 2.027.501 0 .94-.204 1.301-.579L15.357 17.55c.439-.443.642-.954.642-1.55z"/></symbol></symbol></defs></svg>