<svg aria-hidden="true" style="position: absolute; width: 0; height: 0; overflow: hidden;" version="1.1" xmlns="http://www.w3.org/2000/svg" xmlns:xlink="http://www.w3.org/1999/xlink">
<defs>
<symbol id="icon-vector-up" viewBox="0 0 53 32">
<path d="M6.267 32l-6.267-6.089 26.667-25.911 26.667 25.911-6.267 6.089-20.4-19.779-20.4 19.779z"></path>
</symbol>
<symbol id="icon-frame" viewBox="0 0 32 32">
<path d="M22.666 4h5.333c0.354 0 0.693 0.14 0.943 0.391s0.391 0.589 0.391 0.943v21.333c0 0.354-0.14 0.693-0.391 0.943s-0.589 0.39-0.943 0.39h-24c-0.354 0-0.693-0.14-0.943-0.39s-0.391-0.589-0.391-0.943v-21.333c0-0.354 0.14-0.693 0.391-0.943s0.589-0.391 0.943-0.391h5.333v-2.667h2.667v2.667h8v-2.667h2.667v2.667zM26.666 14.667h-21.333v10.667h21.333v-10.667zM20 6.667h-8v2.667h-2.667v-2.667h-4v5.333h21.333v-5.333h-4v2.667h-2.667v-2.667zM8 17.333h2.667v2.667h-2.667v-2.667zM14.666 17.333h2.667v2.667h-2.667v-2.667zM21.333 17.333h2.667v2.667h-2.667v-2.667z"></path>
</symbol>
<symbol id="icon-vector-down" viewBox="0 0 53 32">
<path d="M6.267 0l-6.267 6.089 26.667 25.911 26.667-25.911-6.267-6.089-20.4 19.779-20.4-19.779z"></path>
</symbol>
<symbol id="icon-vector-left" viewBox="0 0 16 32">
<path d="M0 16c0 0.596 0.204 1.107 0.642 1.55l12.192 12.982c0.345 0.375 0.784 0.579 1.301 0.579 1.034 0 1.865-0.886 1.865-2.027 0-0.562-0.219-1.056-0.564-1.448l-10.985-11.636 10.985-11.636c0.345-0.392 0.564-0.903 0.564-1.448 0-1.141-0.831-2.027-1.865-2.027-0.517 0-0.956 0.204-1.301 0.579l-12.192 12.965c-0.439 0.46-0.642 0.971-0.642 1.567z"></path>
</symbol>
<symbol id="icon-vector-right" viewBox="0 0 16 32">
<path d="M16 16c-0.016-0.596-0.219-1.107-0.643-1.567l-12.192-12.965c-0.36-0.375-0.784-0.579-1.301-0.579-1.050 0-1.865 0.886-1.865 2.027 0 0.545 0.204 1.056 0.564 1.448l10.97 11.636-10.97 11.636c-0.36 0.392-0.564 0.886-0.564 1.448 0 1.142 0.815 2.027 1.865 2.027 0.501 0 0.94-0.204 1.301-0.579l12.192-12.982c0.439-0.443 0.642-0.954 0.642-1.55z"></path>
<symbol id="icon-chevronbackward" viewBox="0 0 16 32">
<path fill="#4440f6" style="fill: var(--color1, #4440f6)" d="M0 16c0 0.596 0.204 1.107 0.642 1.55l12.192 12.982c0.345 0.375 0.784 0.579 1.301 0.579 1.034 0 1.865-0.886 1.865-2.027 0-0.562-0.219-1.056-0.564-1.448l-10.985-11.636 10.985-11.636c0.345-0.392 0.564-0.903 0.564-1.448 0-1.141-0.831-2.027-1.865-2.027-0.517 0-0.956 0.204-1.301 0.579l-12.192 12.965c-0.439 0.46-0.642 0.971-0.642 1.567z"></path>
</symbol>
<symbol id="icon-chevronforward" viewBox="0 0 16 32">
<path fill="#4440f6" style="fill: var(--color1, #4440f6)" d="M16 16c-0.016-0.596-0.219-1.107-0.643-1.567l-12.192-12.965c-0.36-0.375-0.784-0.579-1.301-0.579-1.050 0-1.865 0.886-1.865 2.027 0 0.545 0.204 1.056 0.564 1.448l10.97 11.636-10.97 11.636c-0.36 0.392-0.564 0.886-0.564 1.448 0 1.142 0.815 2.027 1.865 2.027 0.501 0 0.94-0.204 1.301-0.579l12.192-12.982c0.439-0.443 0.642-0.954 0.642-1.55z"></path>
</symbol>
</symbol>
</defs>
</svg>
